<svg id="_x31__x2C_5_px" enable-background="new 0 0 24 24" height="512" viewBox="0 0 24 24" width="512" xmlns="http://www.w3.org/2000/svg"><g><path d="m21.25 7.75h-1v1.75c0 1.52-1.23 2.75-2.75 2.75-.76 0-1.45-.31-1.94-.81-.5-.49-.81-1.18-.81-1.94v-1.75h-4.34c-.26 0-.52-.11-.7-.29l-1.42-1.42c-.18-.18-.44-.29-.7-.29h-4.84c-1.1 0-2 .9-2 2v12.5c0 1.1.9 2 2 2h18.5c1.1 0 2-.9 2-2v-10.5c0-1.1-.9-2-2-2z" fill="#607d8b"/></g><g><path d="m17.5 13c-1.93 0-3.5-1.57-3.5-3.5v-5.25c0-1.24 1.01-2.25 2.25-2.25s2.25 1.01 2.25 2.25v5c0 .414-.336.75-.75.75s-.75-.336-.75-.75v-5c0-.413-.337-.75-.75-.75s-.75.337-.75.75v5.25c0 1.103.897 2 2 2s2-.897 2-2v-6.75c0-.414.336-.75.75-.75s.75.336.75.75v6.75c0 1.93-1.57 3.5-3.5 3.5z"/></g><g><path d="m21.25 23h-18.5c-1.517 0-2.75-1.233-2.75-2.75v-12.5c0-1.517 1.233-2.75 2.75-2.75h4.84c.458 0 .906.186 1.23.51l1.42 1.42c.041.041.113.07.17.07h1.34c.414 0 .75.336.75.75s-.336.75-.75.75h-1.34c-.458 0-.906-.186-1.23-.51l-1.42-1.42c-.041-.041-.113-.07-.17-.07h-4.84c-.689 0-1.25.561-1.25 1.25v12.5c0 .689.561 1.25 1.25 1.25h18.5c.689 0 1.25-.561 1.25-1.25v-10.5c-.099-.402.154-.784.557-.883.4-.099.814.172.912.575.031.128.031.241.031.308v10.5c0 1.517-1.233 2.75-2.75 2.75z"/></g></svg>